<svg version="1.2" xmlns="http://www.w3.org/2000/svg" viewBox="0 0 587 1338" width="587" height="1338">
	<title>Logo_Vectorial</title>
	<style>
		.s0 { fill: #7250a0;stroke: #231f20;stroke-miterlimit:10 } 
		.s1 { fill: #3168b1;stroke: #231f20;stroke-miterlimit:10 } 
		.s2 { fill: #4dbd9a;stroke: #231f20;stroke-miterlimit:10 } 
		.s3 { fill: #ebe733;stroke: #231f20;stroke-miterlimit:10 } 
		.s4 { fill: #f89e31;stroke: #231f20;stroke-miterlimit:10 } 
		.s5 { fill: #ed4286;stroke: #231f20;stroke-miterlimit:10 } 
		.s6 { fill: #fefefe;stroke: #231f20;stroke-linecap: square;stroke-linejoin: bevel } 
	</style>
	<g id="Capa 1">
		<g id="&lt;Group&gt;">
			<g id="&lt;Group&gt;">
				<path id="&lt;Path&gt;" class="s0" d="m91.1 102.4h-10.3c-0.7 0-1.3 0.5-1.3 1.2l-2 23.2-9-23.6c-0.2-0.5-0.7-0.8-1.2-0.8l-9.8-0.1c-0.5 0-0.8 0.2-1.1 0.6-0.2 0.3-0.3 0.8-0.2 1.2l9.8 27.7-16.7 34.8c-0.2 0.4-0.2 0.8 0.1 1.2 0.2 0.4 0.6 0.6 1.1 0.6l10.2 0.1c0.5 0 0.9-0.3 1.2-0.8l12.6-26.8 1.5 3.3-2 22.9c0 0.3 0.1 0.7 0.4 1 0.2 0.2 0.6 0.4 0.9 0.4h10.4c0.7 0 1.2-0.5 1.3-1.2l5.4-63.4c0-0.4-0.1-0.8-0.3-1-0.3-0.3-0.6-0.5-1-0.5z"/>
				<path id="&lt;Compound Path&gt;" fill-rule="evenodd" class="s0" d="m133.7 112.2c1 3.2 1.3 7 0.9 11.4l-2.1 24c-0.3 4.3-1.3 8.2-2.7 11.4-1.5 3.3-3.8 5.9-6.7 7.7-3 1.8-6.8 2.7-11.5 2.7-4.6 0-8.4-0.9-11.1-2.8-2.7-1.8-4.6-4.5-5.5-7.9-0.9-3.2-1.2-7.1-0.8-11.5l2-23.9c0.4-4.4 1.3-8.2 2.8-11.4 1.5-3.2 3.8-5.8 6.8-7.5 2.9-1.7 6.7-2.5 11.3-2.5 4.7 0 8.4 0.9 11.1 2.7q0 0 0 0c2.7 1.8 4.6 4.3 5.5 7.6zm-12 8.9q0.2-2.9-0.1-5.1-0.2-1.8-1.3-2.7-1.2-1-3.8-1-2.6 0-4 1c-0.9 0.7-1.6 1.6-2 2.9q-0.7 2.1-1 5l-2.4 28.6q-0.2 3 0 5.2c0.2 1.3 0.7 2.3 1.4 2.9q1.1 1 3.8 1 2.7 0.1 4-1c1-0.7 1.6-1.7 2-3.1q0.7-2.2 0.9-5.1z"/>
				<path id="&lt;Path&gt;" class="s0" d="m164.1 159l-14.3-0.1 4.7-54.8c0-0.4-0.1-0.8-0.4-1-0.2-0.3-0.6-0.5-0.9-0.5h-10.4c-0.7 0-1.2 0.5-1.3 1.2l-5.4 63.5c-0.1 0.3 0.1 0.7 0.3 1 0.3 0.2 0.6 0.4 1 0.4l26.1 0.1c0.7 0 1.2-0.5 1.3-1.2l0.6-7.2c0-0.4-0.1-0.8-0.3-1-0.3-0.3-0.6-0.4-1-0.4z"/>
				<path id="&lt;Path&gt;" class="s0" d="m199.1 112.8c0.7 0 1.2-0.5 1.3-1.2l0.6-7.4c0-0.4-0.1-0.7-0.3-1-0.3-0.3-0.6-0.4-1-0.4l-25.7-0.1c-0.7 0-1.2 0.5-1.3 1.2l-5.4 63.5c-0.1 0.3 0.1 0.7 0.3 1 0.3 0.2 0.6 0.4 1 0.4l25.8 0.1c0.7 0 1.3-0.5 1.4-1.2l0.6-7.2c0-0.4-0.1-0.8-0.4-1-0.2-0.3-0.6-0.4-0.9-0.4l-14.1-0.1 1.6-19.5 11.1 0.1c0.7 0 1.3-0.6 1.3-1.2l0.7-7.3c0-0.3-0.1-0.7-0.4-0.9-0.2-0.3-0.6-0.5-0.9-0.5h-10.9l1.4-16.9z"/>
				<path id="&lt;Path&gt;" class="s0" d="m233 104.7c-2.5-1.6-6-2.5-10.4-2.5-4.8 0-8.7 0.9-11.6 2.8-3 1.9-5.2 4.6-6.6 8-1.3 3.2-2.2 7.2-2.6 11.6l-1.9 22.6c-0.4 4.1-0.1 7.9 0.6 11.2 0.9 3.4 2.6 6.2 5.3 8.2 2.6 2.1 6.4 3.1 11.2 3.1 4.7 0 8.4-0.8 11.1-2.6 2.7-1.8 4.8-4.3 6.1-7.4 1.3-3.1 2.2-6.6 2.5-10.6l0.4-4.8c0-0.4-0.1-0.7-0.3-1-0.3-0.3-0.6-0.4-1-0.4l-9.9-0.1c-0.7 0-1.3 0.6-1.3 1.2l-0.5 5.3q-0.3 3.1-0.8 5.5-0.5 2.2-1.7 3.4-1.1 1.1-3.8 1.1-2.3 0-3.5-0.9-1.1-0.8-1.4-2.8-0.5-2.4-0.1-6.2l2.2-26.5q0.3-3.3 1-5.7c0.4-1.5 1-2.6 1.9-3.5q1.3-1.1 4.1-1.1c1.8 0 3 0.3 3.6 1q0.9 1 1 2.9 0.1 2.4-0.2 5.4l-0.4 5c0 0.3 0.1 0.7 0.4 1 0.2 0.2 0.6 0.4 0.9 0.4h10c0.7 0 1.2-0.5 1.3-1.2l0.4-5.1c0.4-4 0.1-7.4-0.8-10.3-0.9-3-2.6-5.3-5.2-7z"/>
				<path id="&lt;Path&gt;" class="s0" d="m274.4 112.1l0.7-7.7c0-0.3-0.1-0.7-0.3-1-0.3-0.2-0.6-0.4-1-0.4l-30.9-0.1c-0.7 0-1.2 0.5-1.3 1.2l-0.7 7.7c0 0.4 0.1 0.7 0.4 1 0.2 0.3 0.6 0.4 0.9 0.4h9.1l-4.7 54.4c0 0.4 0.1 0.7 0.4 1 0.2 0.3 0.5 0.4 0.9 0.4l10.4 0.1c0.6 0 1.2-0.5 1.3-1.2l4.6-54.6h8.9c0.7 0 1.3-0.5 1.3-1.2z"/>
				<path id="&lt;Path&gt;" class="s0" d="m289.6 103.1l-10.2-0.1c-0.7 0-1.3 0.5-1.3 1.2l-5.5 63.5c0 0.4 0.1 0.7 0.4 1 0.2 0.3 0.6 0.4 0.9 0.4l10.2 0.1c0.7 0 1.3-0.6 1.3-1.2l5.5-63.5c0-0.4-0.1-0.7-0.4-1-0.2-0.3-0.6-0.4-0.9-0.4z"/>
				<path id="&lt;Path&gt;" class="s0" d="m333.3 103.7c-0.2-0.3-0.6-0.5-1-0.5h-9.4c-0.6 0-1.1 0.4-1.3 0.9l-10.8 39.2-4.4-39c-0.1-0.7-0.7-1.2-1.3-1.2h-9.4c-0.3 0-0.7 0.1-0.9 0.4-0.3 0.3-0.4 0.7-0.4 1l8 63.6c0.1 0.6 0.7 1.1 1.3 1.1h9.7c0.6 0 1.1-0.3 1.3-0.9l18.8-63.4c0.1-0.4 0.1-0.9-0.2-1.2z"/>
				<path id="&lt;Compound Path&gt;" fill-rule="evenodd" class="s0" d="m370.8 113c0.9 3.1 1.2 7 0.9 11.3l-2.1 24c-0.4 4.4-1.3 8.2-2.8 11.4-1.5 3.3-3.7 5.9-6.7 7.7-2.9 1.8-6.8 2.8-11.4 2.7-4.7 0-8.4-0.9-11.1-2.7-2.7-1.9-4.6-4.5-5.6-7.9-0.9-3.3-1.1-7.2-0.7-11.5l2-24c0.4-4.4 1.3-8.2 2.8-11.3 1.5-3.3 3.8-5.8 6.7-7.5 3-1.7 6.8-2.6 11.4-2.6 4.7 0 8.4 0.9 11.1 2.7q0 0 0 0c2.7 1.8 4.5 4.4 5.5 7.7zm-12.1 8.8q0.3-2.9 0-5-0.3-1.8-1.4-2.8-1.1-1-3.8-1-2.6 0-4 1c-0.9 0.7-1.5 1.7-2 2.9q-0.6 2.2-0.9 5.1l-2.4 28.6q-0.3 2.9 0 5.2c0.2 1.2 0.6 2.2 1.4 2.9q1.1 1 3.7 1 2.7 0 4.1-1.1c0.9-0.7 1.6-1.7 2-3q0.6-2.3 0.9-5.2z"/>
				<path id="&lt;Compound Path&gt;" fill-rule="evenodd" class="s0" d="m430 113c0.7 2.2 0.8 4.9 0.6 8.1-0.2 2.7-0.8 5-1.7 7q-1.4 3.2-3.9 5-0.8 0.6-1.8 1.1 1.5 0.7 2.7 1.8 0 0 0 0c1.6 1.5 2.8 3.5 3.5 5.8 0.6 2.3 0.8 5.1 0.5 8.3-0.2 3-0.9 5.7-1.8 8.1-1 2.5-2.3 4.5-4 6.2-1.6 1.6-3.7 2.9-6.1 3.8-2.3 0.9-5 1.4-8.1 1.3h-17.7c-0.3 0-0.7-0.2-0.9-0.4-0.3-0.3-0.4-0.7-0.4-1l5.5-63.5c0-0.7 0.6-1.2 1.3-1.2h15.1c2.9 0.1 5.5 0.4 7.8 1q3.6 0.9 5.9 3 2.5 2.2 3.5 5.6zm-12.2 13.2q0.9-2.1 1.2-5.3c0.2-2.9-0.2-4.3-0.6-5q-0.7-1.4-2.7-1.9-2.3-0.6-6.1-0.6h-1l-1.4 16.2h3.1q3.3 0 5.1-0.8c1.1-0.6 1.9-1.4 2.4-2.6zm-13.2 33.4h3.7c3.3 0 5.6-0.7 6.7-2.1 1.3-1.6 2.1-4.2 2.4-7.7q0.3-3.7-0.3-6c-0.5-1.4-1.2-2.4-2.3-3q-1.8-1.1-5.1-1.1h-3.4z"/>
				<path id="&lt;Compound Path&gt;" fill-rule="evenodd" class="s0" d="m472 113.1c1 3.1 1.3 6.9 0.9 11.5l-1.9 23.2c-0.5 4.8-1.4 8.8-2.9 12-1.6 3.3-3.9 5.8-7.1 7.4-3.1 1.7-7.1 2.5-12.1 2.5l-15-0.1c-0.3 0-0.7-0.1-0.9-0.4-0.3-0.3-0.4-0.6-0.4-1l5.5-63.5c0-0.7 0.6-1.2 1.3-1.2l14.4 0.1c5.1 0 9.2 0.8 12.1 2.3q0 0 0 0c3.1 1.5 5.1 4 6.1 7.2zm-12.1 11.4c0.2-2.9 0.2-5.1 0-6.8q-0.3-2.1-1.6-3c-0.7-0.4-2.1-1-5.2-1h-2.8l-4 46.1h2.8q4 0 5.6-1.3 1.6-1.3 2.2-4c0.5-2.1 0.8-4.6 1.1-7.5z"/>
				<path id="&lt;Path&gt;" class="s0" d="m515.6 104.3c-0.3-0.3-0.6-0.5-1.1-0.5l-9.4-0.1c-0.6 0-1.1 0.4-1.2 1l-10.8 39.2-4.5-39.1c0-0.6-0.6-1.1-1.3-1.1l-9.3-0.1c-0.4 0-0.7 0.2-1 0.5-0.2 0.3-0.3 0.6-0.3 1l8 63.5c0.1 0.7 0.6 1.2 1.3 1.2h9.7c0.6 0 1.1-0.4 1.3-0.9l18.8-63.5c0.1-0.4 0-0.8-0.2-1.1z"/>
			</g>
			<g id="&lt;Group&gt;">
				<path id="&lt;Path&gt;" class="s1" d="m94.1 100.3h-10.3c-0.7 0-1.3 0.5-1.3 1.2l-2 23.1-9-23.5c-0.2-0.5-0.7-0.9-1.2-0.9h-9.8c-0.4 0-0.8 0.2-1.1 0.6-0.2 0.3-0.3 0.7-0.1 1.1l9.8 27.8-16.8 34.7c-0.2 0.4-0.1 0.9 0.1 1.3 0.2 0.4 0.7 0.6 1.1 0.6h10.2c0.5 0 1-0.3 1.2-0.7l12.6-26.8 1.5 3.2-1.9 23c-0.1 0.3 0 0.7 0.3 0.9 0.2 0.3 0.6 0.5 1 0.5h10.3c0.7 0 1.2-0.5 1.3-1.2l5.4-63.5c0.1-0.3-0.1-0.7-0.3-1-0.3-0.2-0.6-0.4-1-0.4z"/>
				<path id="&lt;Compound Path&gt;" fill-rule="evenodd" class="s1" d="m136.8 110.1c0.9 3.2 1.2 7 0.8 11.4l-2 23.9c-0.4 4.4-1.3 8.2-2.8 11.4-1.5 3.3-3.8 5.9-6.7 7.8-3 1.8-6.8 2.7-11.5 2.7-4.6 0-8.3-1-11-2.8-2.8-1.8-4.7-4.5-5.6-7.9-0.9-3.3-1.2-7.1-0.8-11.5l2.1-24c0.3-4.3 1.3-8.2 2.7-11.3 1.6-3.3 3.8-5.8 6.8-7.5 2.9-1.7 6.8-2.6 11.4-2.5 4.6 0 8.4 0.9 11 2.6q0 0 0 0c2.7 1.8 4.6 4.4 5.6 7.7zm-12.1 8.8q0.2-2.9 0-5-0.3-1.8-1.4-2.8-1.2-1-3.8-1-2.6 0-4 1c-0.9 0.7-1.6 1.7-2 3q-0.7 2.1-0.9 5l-2.5 28.6q-0.2 2.9 0.1 5.2c0.1 1.3 0.6 2.2 1.3 2.9q1.2 1 3.8 1 2.7 0 4.1-1c0.9-0.8 1.5-1.7 1.9-3.1q0.7-2.3 1-5.2z"/>
				<path id="&lt;Path&gt;" class="s1" d="m167.1 156.8h-14.3l4.7-54.9c0-0.3-0.1-0.7-0.4-1-0.2-0.2-0.6-0.4-0.9-0.4h-10.4c-0.7 0-1.2 0.5-1.3 1.2l-5.4 63.4c0 0.4 0.1 0.8 0.3 1 0.3 0.3 0.6 0.5 1 0.5h26.1c0.7 0 1.3-0.5 1.3-1.2l0.6-7.2c0.1-0.3-0.1-0.7-0.3-1-0.3-0.2-0.6-0.4-1-0.4z"/>
				<path id="&lt;Path&gt;" class="s1" d="m202.1 110.7c0.7 0 1.2-0.5 1.3-1.2l0.6-7.4c0.1-0.4-0.1-0.8-0.3-1-0.2-0.3-0.6-0.5-1-0.5h-25.7c-0.7 0-1.2 0.5-1.3 1.2l-5.4 63.4c0 0.4 0.1 0.8 0.3 1 0.3 0.3 0.6 0.5 1 0.5h25.9c0.6 0 1.2-0.5 1.3-1.2l0.6-7.2c0-0.3-0.1-0.7-0.3-1-0.3-0.2-0.6-0.4-1-0.4h-14.1l1.7-19.5h11.1c0.6 0 1.2-0.5 1.3-1.2l0.6-7.2c0-0.4-0.1-0.7-0.4-1-0.2-0.3-0.6-0.4-0.9-0.4h-10.9l1.4-16.9z"/>
				<path id="&lt;Path&gt;" class="s1" d="m236 102.6c-2.5-1.7-6-2.5-10.4-2.5-4.8 0-8.7 0.9-11.6 2.8-3 1.9-5.2 4.5-6.6 7.9-1.3 3.3-2.2 7.2-2.6 11.7l-1.9 22.5c-0.3 4.2-0.1 7.9 0.7 11.2 0.8 3.5 2.5 6.3 5.2 8.3 2.7 2 6.4 3.1 11.3 3.1 4.6 0 8.3-0.9 11-2.7 2.8-1.7 4.8-4.2 6.2-7.4 1.3-3 2.1-6.6 2.4-10.5l0.4-4.8c0.1-0.4-0.1-0.8-0.3-1-0.2-0.3-0.6-0.5-1-0.5h-9.9c-0.7 0-1.3 0.5-1.3 1.2l-0.5 5.3q-0.2 3.1-0.8 5.5-0.5 2.1-1.7 3.3-1.1 1.1-3.8 1.1-2.3 0-3.5-0.8-1.1-0.9-1.4-2.9-0.4-2.3-0.1-6.1l2.2-26.5q0.3-3.3 1-5.8c0.4-1.5 1-2.6 1.9-3.4q1.3-1.1 4.1-1.1c1.8 0 3 0.3 3.6 0.9q0.9 1 1 3 0.1 2.4-0.1 5.3l-0.5 5c0 0.4 0.1 0.8 0.4 1 0.2 0.3 0.6 0.5 0.9 0.5h10c0.7 0 1.2-0.5 1.3-1.2l0.4-5.2c0.4-3.9 0.1-7.3-0.7-10.2-0.9-3-2.7-5.4-5.3-7z"/>
				<path id="&lt;Path&gt;" class="s1" d="m277.5 110l0.6-7.7c0-0.4-0.1-0.7-0.3-1-0.3-0.3-0.6-0.4-1-0.4l-30.9-0.1c-0.6 0-1.2 0.5-1.3 1.2l-0.6 7.7c-0.1 0.3 0.1 0.7 0.3 0.9 0.3 0.3 0.6 0.5 1 0.5h9l-4.7 54.4c0 0.4 0.1 0.7 0.4 1 0.2 0.3 0.6 0.4 0.9 0.4h10.4c0.7 0 1.2-0.5 1.3-1.2l4.6-54.6 9 0.1c0.6 0 1.2-0.5 1.3-1.2z"/>
				<path id="&lt;Path&gt;" class="s1" d="m292.6 100.9h-10.2c-0.7 0-1.3 0.5-1.3 1.2l-5.4 63.5c-0.1 0.3 0.1 0.7 0.3 1 0.2 0.2 0.6 0.4 1 0.4h10.2c0.6 0 1.2-0.5 1.3-1.2l5.4-63.5c0-0.3-0.1-0.7-0.4-1-0.2-0.2-0.6-0.4-0.9-0.4z"/>
				<path id="&lt;Path&gt;" class="s1" d="m336.3 101.6c-0.2-0.3-0.6-0.5-1-0.5l-9.4-0.1c-0.6 0-1.1 0.4-1.3 1l-10.8 39.2-4.4-39.1c-0.1-0.6-0.6-1.1-1.3-1.1l-9.3-0.1c-0.4 0-0.8 0.2-1 0.5-0.3 0.3-0.4 0.6-0.3 1l8 63.5c0 0.7 0.6 1.2 1.2 1.2h9.8c0.5 0 1.1-0.4 1.2-0.9l18.8-63.5c0.2-0.4 0.1-0.8-0.2-1.1z"/>
				<path id="&lt;Compound Path&gt;" fill-rule="evenodd" class="s1" d="m373.8 110.8c1 3.2 1.2 7 0.9 11.4l-2.1 24c-0.3 4.3-1.3 8.2-2.8 11.4-1.5 3.3-3.7 5.9-6.7 7.7-2.9 1.8-6.8 2.7-11.4 2.7-4.7 0-8.4-0.9-11.1-2.8-2.7-1.8-4.6-4.5-5.5-7.9-0.9-3.2-1.2-7.1-0.8-11.5l2-23.9c0.4-4.4 1.3-8.2 2.8-11.4 1.5-3.2 3.8-5.8 6.8-7.5 2.9-1.7 6.7-2.5 11.3-2.5 4.7 0 8.4 0.9 11.1 2.7q0 0 0 0c2.7 1.8 4.5 4.4 5.5 7.6zm-12 8.9q0.2-2.9-0.1-5.1-0.2-1.8-1.4-2.7-1.1-1-3.7-1-2.7 0-4 1c-1 0.7-1.6 1.6-2 2.9q-0.7 2.1-1 5l-2.4 28.6q-0.3 3 0 5.2c0.2 1.3 0.6 2.3 1.4 2.9q1.1 1 3.8 1.1 2.6 0 4-1.1c0.9-0.7 1.6-1.7 2-3q0.7-2.3 0.9-5.2z"/>
				<path id="&lt;Compound Path&gt;" fill-rule="evenodd" class="s1" d="m433 110.9c0.7 2.2 0.9 4.9 0.6 8-0.2 2.7-0.8 5.1-1.7 7.1q-1.4 3.1-3.8 4.9-0.9 0.7-1.9 1.1 1.5 0.8 2.7 1.8 0 0 0 0c1.6 1.6 2.8 3.5 3.5 5.9 0.6 2.3 0.8 5.1 0.5 8.2-0.2 3.1-0.8 5.8-1.8 8.2-0.9 2.4-2.3 4.5-3.9 6.1-1.7 1.7-3.8 3-6.1 3.9-2.4 0.9-5.1 1.3-8.1 1.3h-17.7c-0.4 0-0.8-0.2-1-0.5-0.3-0.2-0.4-0.6-0.3-1l5.4-63.4c0-0.7 0.6-1.2 1.3-1.2h15.1c2.9 0 5.6 0.3 7.8 0.9q3.6 1 6 3.1 2.4 2.1 3.4 5.6zm-12.2 13.1q0.9-2 1.2-5.2c0.2-2.9-0.2-4.3-0.6-5q-0.7-1.4-2.6-1.9-2.4-0.6-6.2-0.6h-1l-1.4 16.2h3.1q3.3 0 5.1-0.9c1.1-0.5 1.9-1.4 2.4-2.6zm-13.2 33.5h3.7c3.3 0 5.6-0.7 6.8-2.2 1.2-1.5 2-4.1 2.3-7.6q0.4-3.7-0.3-6c-0.4-1.4-1.2-2.4-2.3-3.1q-1.8-1-5.1-1.1h-3.3z"/>
				<path id="&lt;Compound Path&gt;" fill-rule="evenodd" class="s1" d="m475.1 111c0.9 3 1.2 6.9 0.9 11.5l-2 23.2c-0.4 4.7-1.4 8.8-2.9 11.9-1.5 3.3-3.9 5.8-7.1 7.5-3 1.6-7.1 2.4-12.1 2.4h-14.9c-0.4 0-0.8-0.2-1-0.4-0.3-0.3-0.4-0.7-0.3-1l5.4-63.5c0-0.7 0.6-1.2 1.3-1.2h14.4c5.2 0.1 9.2 0.8 12.1 2.3q0 0 0 0c3.1 1.6 5.1 4.1 6.2 7.3zm-12.2 11.3c0.3-2.8 0.3-5.1 0-6.7q-0.2-2.1-1.6-3c-0.7-0.5-2.1-1-5.2-1h-2.8l-3.9 46h2.8q3.9 0 5.5-1.3 1.6-1.3 2.2-4c0.5-2 0.8-4.5 1.1-7.4z"/>
				<path id="&lt;Path&gt;" class="s1" d="m518.6 102.2c-0.2-0.4-0.6-0.6-1-0.6h-9.4c-0.6 0-1.2 0.4-1.3 1l-10.8 39.2-4.4-39.1c-0.1-0.7-0.7-1.2-1.3-1.2h-9.4c-0.3 0-0.7 0.2-1 0.5-0.2 0.2-0.3 0.6-0.3 1l8 63.5c0.1 0.7 0.7 1.1 1.3 1.1l9.7 0.1c0.6 0 1.1-0.4 1.3-1l18.8-63.4c0.1-0.4 0.1-0.8-0.2-1.1z"/>
			</g>
			<g id="&lt;Group&gt;">
				<path id="&lt;Path&gt;" class="s2" d="m97.6 98.3l-10.4-0.1c-0.6 0-1.2 0.6-1.3 1.2l-1.9 23.2-9-23.6c-0.2-0.5-0.7-0.8-1.2-0.8h-9.8c-0.5 0-0.9 0.2-1.1 0.5-0.3 0.4-0.3 0.8-0.2 1.2l9.8 27.7-16.7 34.8c-0.2 0.4-0.2 0.9 0.1 1.2 0.2 0.4 0.6 0.6 1.1 0.6l10.2 0.1c0.5 0 0.9-0.3 1.1-0.8l12.7-26.7 1.5 3.2-2 22.9c0 0.4 0.1 0.7 0.4 1 0.2 0.3 0.6 0.4 0.9 0.4l10.4 0.1c0.6 0 1.2-0.6 1.3-1.2l5.4-63.5c0-0.4-0.1-0.7-0.3-1-0.3-0.3-0.6-0.4-1-0.4z"/>
				<path id="&lt;Compound Path&gt;" fill-rule="evenodd" class="s2" d="m140.2 108.1c1 3.1 1.3 6.9 0.9 11.3l-2.1 24c-0.3 4.4-1.3 8.2-2.7 11.4-1.6 3.3-3.8 5.9-6.8 7.7-2.9 1.8-6.7 2.7-11.4 2.7-4.6 0-8.4-0.9-11.1-2.7-2.7-1.9-4.6-4.6-5.5-8-0.9-3.2-1.2-7.1-0.8-11.4l2-24c0.4-4.4 1.3-8.2 2.8-11.4 1.5-3.2 3.8-5.7 6.8-7.4 2.9-1.7 6.7-2.6 11.3-2.6 4.7 0 8.4 0.9 11.1 2.7q0 0 0 0c2.7 1.8 4.6 4.4 5.5 7.7zm-12 8.8q0.2-2.9-0.1-5.1-0.2-1.7-1.4-2.7-1.1-1-3.7-1-2.6 0-4 1c-1 0.7-1.6 1.7-2 2.9q-0.7 2.2-1 5.1l-2.4 28.6q-0.3 2.9 0 5.1c0.2 1.3 0.6 2.3 1.4 3q1.1 1 3.8 1 2.7 0 4-1.1c1-0.7 1.6-1.7 2-3q0.7-2.3 0.9-5.2z"/>
				<path id="&lt;Path&gt;" class="s2" d="m170.6 154.8l-14.3-0.1 4.6-54.8c0.1-0.4 0-0.7-0.3-1-0.2-0.3-0.6-0.4-1-0.4l-10.3-0.1c-0.7 0-1.3 0.5-1.3 1.2l-5.4 63.5c-0.1 0.4 0.1 0.7 0.3 1 0.3 0.3 0.6 0.4 1 0.4l26.1 0.1c0.7 0 1.2-0.5 1.3-1.2l0.6-7.2c0-0.4-0.1-0.7-0.3-1-0.3-0.3-0.6-0.4-1-0.4z"/>
				<path id="&lt;Path&gt;" class="s2" d="m205.6 108.7c0.6 0 1.2-0.6 1.3-1.2l0.6-7.5c0-0.3-0.1-0.7-0.3-1-0.3-0.2-0.6-0.4-1-0.4l-25.7-0.1c-0.7 0-1.3 0.5-1.3 1.2l-5.4 63.5c-0.1 0.4 0.1 0.7 0.3 1 0.3 0.3 0.6 0.4 1 0.4l25.8 0.1c0.7 0 1.3-0.5 1.3-1.2l0.7-7.2c0-0.4-0.1-0.7-0.4-1-0.2-0.3-0.6-0.4-0.9-0.4l-14.1-0.1 1.6-19.5 11.1 0.1c0.7 0 1.3-0.5 1.3-1.2l0.6-7.2c0.1-0.4 0-0.8-0.3-1-0.2-0.3-0.6-0.4-1-0.4l-10.8-0.1 1.4-16.9z"/>
				<path id="&lt;Path&gt;" class="s2" d="m239.5 100.5c-2.5-1.6-6-2.4-10.4-2.5-4.8 0-8.7 1-11.7 2.8-2.9 1.9-5.1 4.6-6.5 8-1.3 3.3-2.2 7.2-2.6 11.6l-1.9 22.6c-0.4 4.1-0.1 7.9 0.6 11.2 0.8 3.4 2.6 6.2 5.3 8.3 2.6 2 6.4 3 11.2 3.1 4.7 0 8.4-0.9 11.1-2.7 2.7-1.8 4.8-4.3 6.1-7.4 1.3-3.1 2.2-6.6 2.5-10.5l0.4-4.9c0-0.3-0.1-0.7-0.3-1-0.3-0.2-0.6-0.4-1-0.4h-9.9c-0.7 0-1.3 0.5-1.4 1.2l-0.4 5.2q-0.3 3.1-0.8 5.6-0.5 2.1-1.7 3.3-1.1 1.1-3.8 1.1-2.3 0-3.5-0.9-1.1-0.8-1.5-2.8-0.4-2.4 0-6.2l2.2-26.5q0.3-3.2 1-5.7c0.4-1.5 1-2.6 1.9-3.4q1.3-1.2 4.1-1.2c1.8 0 3 0.4 3.6 1q0.9 1 1 3 0.1 2.3-0.2 5.3l-0.4 5c0 0.4 0.1 0.7 0.3 1 0.3 0.3 0.6 0.4 1 0.4h10c0.6 0 1.2-0.5 1.3-1.1l0.4-5.2c0.3-3.9 0.1-7.4-0.8-10.2-0.9-3-2.6-5.4-5.2-7.1z"/>
				<path id="&lt;Path&gt;" class="s2" d="m280.9 107.9l0.7-7.6c0-0.4-0.1-0.8-0.4-1-0.2-0.3-0.5-0.5-0.9-0.5l-30.9-0.1c-0.7 0-1.2 0.6-1.3 1.2l-0.7 7.7c0 0.4 0.1 0.7 0.4 1 0.2 0.3 0.6 0.4 0.9 0.4l9 0.1-4.6 54.3c0 0.4 0.1 0.8 0.3 1 0.3 0.3 0.6 0.5 1 0.5h10.4c0.6 0 1.2-0.5 1.3-1.2l4.6-54.6h8.9c0.7 0 1.3-0.5 1.3-1.2z"/>
				<path id="&lt;Path&gt;" class="s2" d="m296 98.9h-10.1c-0.7-0.1-1.3 0.5-1.4 1.1l-5.4 63.5c0 0.4 0.1 0.8 0.4 1 0.2 0.3 0.6 0.4 0.9 0.4l10.2 0.1c0.7 0 1.3-0.5 1.3-1.2l5.4-63.5c0.1-0.4 0-0.7-0.3-1-0.2-0.3-0.6-0.4-1-0.4z"/>
				<path id="&lt;Path&gt;" class="s2" d="m339.8 99.5c-0.2-0.3-0.6-0.5-1-0.5h-9.4c-0.6 0-1.1 0.4-1.3 0.9l-10.8 39.3-4.4-39.1c-0.1-0.7-0.7-1.2-1.3-1.2h-9.4c-0.3 0-0.7 0.2-0.9 0.4-0.3 0.3-0.4 0.7-0.4 1.1l8 63.5c0.1 0.6 0.7 1.1 1.3 1.1l9.7 0.1c0.6 0 1.1-0.4 1.3-1l18.8-63.4c0.1-0.4 0.1-0.8-0.2-1.2z"/>
				<path id="&lt;Compound Path&gt;" fill-rule="evenodd" class="s2" d="m377.3 108.8c0.9 3.2 1.2 7 0.8 11.4l-2 23.9c-0.4 4.4-1.3 8.2-2.8 11.4-1.5 3.3-3.8 5.9-6.7 7.8-2.9 1.8-6.8 2.7-11.5 2.7-4.6-0.1-8.3-1-11-2.8-2.8-1.9-4.6-4.5-5.6-7.9-0.9-3.3-1.1-7.1-0.8-11.5l2.1-24c0.4-4.4 1.3-8.2 2.8-11.3 1.5-3.3 3.8-5.8 6.7-7.5 3-1.7 6.8-2.6 11.4-2.5 4.7 0 8.4 0.9 11.1 2.6q0 0 0 0c2.6 1.8 4.5 4.4 5.5 7.7zm-12.1 8.8q0.3-2.9 0-5-0.3-1.8-1.4-2.8-1.1-1-3.8-1-2.6 0-4 1c-0.9 0.7-1.6 1.7-2 3q-0.7 2.1-0.9 5l-2.4 28.6q-0.3 2.9 0 5.2c0.2 1.3 0.6 2.2 1.4 2.9q1.1 1 3.7 1 2.7 0 4.1-1c0.9-0.8 1.6-1.8 2-3.1q0.6-2.3 0.9-5.2z"/>
				<path id="&lt;Compound Path&gt;" fill-rule="evenodd" class="s2" d="m436.5 108.8c0.6 2.3 0.8 5 0.6 8.1-0.3 2.7-0.8 5.1-1.7 7.1q-1.4 3.1-3.9 4.9-0.8 0.6-1.8 1.1 1.5 0.7 2.7 1.8 0 0 0 0c1.6 1.5 2.8 3.5 3.4 5.9 0.7 2.2 0.9 5 0.6 8.2-0.3 3-0.9 5.8-1.8 8.2-1 2.4-2.3 4.5-4 6.1-1.6 1.7-3.7 3-6.1 3.9-2.3 0.8-5 1.3-8.1 1.3l-17.7-0.1c-0.3 0-0.7-0.1-0.9-0.4-0.3-0.3-0.4-0.6-0.4-1l5.4-63.5c0.1-0.7 0.7-1.2 1.3-1.2l15.2 0.1c2.9 0 5.5 0.3 7.8 0.9q3.6 1 5.9 3 2.5 2.2 3.5 5.6zm-12.2 13.2q0.9-2.1 1.1-5.3c0.3-2.8-0.1-4.3-0.5-5q-0.7-1.4-2.7-1.9-2.3-0.5-6.1-0.6h-1l-1.4 16.2h3.1q3.3 0.1 5.1-0.8c1.1-0.6 1.9-1.4 2.4-2.6zm-13.2 33.4l3.7 0.1c3.3 0 5.5-0.8 6.7-2.2 1.3-1.6 2.1-4.1 2.4-7.7q0.3-3.6-0.4-5.9c-0.4-1.4-1.1-2.4-2.2-3.1q-1.8-1.1-5.1-1.1h-3.4z"/>
				<path id="&lt;Compound Path&gt;" fill-rule="evenodd" class="s2" d="m478.5 108.9c1 3.1 1.3 7 0.9 11.6l-2 23.2c-0.4 4.7-1.3 8.7-2.8 11.9-1.6 3.3-4 5.8-7.1 7.5-3.1 1.6-7.2 2.4-12.1 2.4l-15-0.1c-0.3 0-0.7-0.1-0.9-0.4-0.3-0.2-0.4-0.6-0.4-1l5.4-63.5c0.1-0.6 0.7-1.2 1.4-1.2l14.4 0.1c5.1 0 9.2 0.8 12.1 2.3q0 0 0 0c3 1.6 5.1 4 6.1 7.2zm-12.1 11.4c0.2-2.8 0.2-5.1 0-6.8q-0.3-2.1-1.6-3c-0.7-0.4-2.1-1-5.3-1h-2.7l-4 46.1h2.8q4 0 5.6-1.3 1.6-1.3 2.2-4c0.5-2 0.8-4.5 1.1-7.4z"/>
				<path id="&lt;Path&gt;" class="s2" d="m522.1 100.1c-0.3-0.3-0.7-0.5-1.1-0.5h-9.4c-0.6 0-1.1 0.3-1.2 0.9l-10.8 39.2-4.5-39c-0.1-0.7-0.6-1.2-1.3-1.2h-9.3c-0.4 0-0.7 0.1-1 0.4-0.2 0.3-0.3 0.7-0.3 1l8 63.6c0.1 0.6 0.6 1.1 1.3 1.1h9.7c0.6 0 1.1-0.3 1.3-0.9l18.8-63.4c0.1-0.4 0-0.9-0.2-1.2z"/>
			</g>
			<g id="&lt;Group&gt;">
				<path id="&lt;Path&gt;" class="s3" d="m100.9 96.5l-10.3-0.1c-0.7 0-1.3 0.5-1.4 1.2l-1.9 23.2-9-23.6c-0.2-0.5-0.7-0.8-1.2-0.8h-9.8c-0.5 0-0.9 0.2-1.1 0.5-0.2 0.4-0.3 0.8-0.2 1.2l9.8 27.7-16.7 34.8c-0.2 0.4-0.2 0.9 0.1 1.2 0.2 0.4 0.6 0.6 1.1 0.6l10.2 0.1c0.5 0 0.9-0.3 1.2-0.8l12.6-26.7 1.5 3.2-2 22.9c0 0.4 0.1 0.7 0.4 1 0.2 0.3 0.6 0.4 0.9 0.4l10.4 0.1c0.7 0 1.2-0.6 1.3-1.2l5.4-63.5c0-0.4-0.1-0.7-0.3-1-0.3-0.3-0.6-0.4-1-0.4z"/>
				<path id="&lt;Compound Path&gt;" fill-rule="evenodd" class="s3" d="m143.5 106.3c1 3.1 1.3 6.9 0.9 11.3l-2.1 24c-0.3 4.3-1.3 8.2-2.7 11.4-1.6 3.3-3.8 5.9-6.8 7.7-2.9 1.8-6.7 2.7-11.4 2.7-4.6 0-8.4-0.9-11.1-2.7-2.7-1.9-4.6-4.6-5.5-8-0.9-3.2-1.2-7.1-0.8-11.4l2-24c0.4-4.4 1.3-8.2 2.8-11.4 1.5-3.2 3.8-5.7 6.8-7.5 2.9-1.7 6.7-2.5 11.3-2.5 4.7 0 8.4 0.9 11.1 2.7q0 0 0 0c2.7 1.8 4.6 4.4 5.5 7.7zm-12 8.8q0.2-2.9-0.1-5.1-0.2-1.8-1.3-2.7-1.2-1-3.8-1-2.6 0-4 1c-0.9 0.7-1.6 1.7-2 2.9q-0.7 2.1-1 5.1l-2.4 28.6q-0.3 2.9 0 5.1c0.2 1.3 0.6 2.3 1.4 3q1.1 1 3.8 1 2.7 0 4-1.1c1-0.7 1.6-1.7 2-3q0.7-2.3 0.9-5.2z"/>
				<path id="&lt;Path&gt;" class="s3" d="m173.9 153l-14.3-0.1 4.6-54.8c0.1-0.4 0-0.8-0.3-1-0.2-0.3-0.6-0.4-1-0.4l-10.3-0.1c-0.7 0-1.2 0.5-1.3 1.2l-5.4 63.5c-0.1 0.4 0.1 0.7 0.3 1 0.3 0.3 0.6 0.4 1 0.4l26.1 0.1c0.7 0 1.2-0.5 1.3-1.2l0.6-7.2c0-0.4-0.1-0.7-0.3-1-0.3-0.3-0.6-0.4-1-0.4z"/>
				<path id="&lt;Path&gt;" class="s3" d="m208.9 106.9c0.6 0 1.2-0.6 1.3-1.2l0.6-7.5c0-0.3-0.1-0.7-0.3-1-0.3-0.2-0.6-0.4-1-0.4l-25.7-0.1c-0.7 0-1.2 0.5-1.3 1.2l-5.4 63.5c-0.1 0.4 0.1 0.7 0.3 1 0.3 0.3 0.6 0.4 1 0.4l25.8 0.1c0.7 0 1.3-0.5 1.3-1.2l0.7-7.2c0-0.4-0.1-0.7-0.4-1-0.2-0.3-0.6-0.4-0.9-0.4l-14.1-0.1 1.6-19.5 11.1 0.1c0.7 0 1.3-0.5 1.3-1.2l0.7-7.2c0-0.4-0.1-0.8-0.4-1-0.2-0.3-0.6-0.5-0.9-0.5h-10.9l1.4-16.9z"/>
				<path id="&lt;Path&gt;" class="s3" d="m242.8 98.7c-2.5-1.6-6-2.4-10.4-2.5-4.8 0-8.7 1-11.7 2.8-2.9 1.9-5.1 4.6-6.5 8-1.3 3.3-2.2 7.2-2.6 11.6l-1.9 22.6c-0.4 4.1-0.1 7.9 0.6 11.2 0.9 3.4 2.6 6.2 5.3 8.3 2.6 2 6.4 3 11.2 3 4.7 0.1 8.4-0.8 11.1-2.6 2.7-1.8 4.8-4.3 6.1-7.4 1.3-3.1 2.2-6.6 2.5-10.5l0.4-4.9c0-0.4-0.1-0.7-0.3-1-0.3-0.3-0.6-0.4-1-0.4h-9.9c-0.7 0-1.3 0.5-1.4 1.2l-0.4 5.2q-0.3 3.1-0.8 5.5-0.5 2.2-1.7 3.4-1.1 1.1-3.8 1.1-2.3 0-3.5-0.9-1.1-0.8-1.4-2.8-0.5-2.4-0.1-6.2l2.2-26.5q0.3-3.2 1-5.7c0.4-1.5 1-2.6 1.9-3.4q1.3-1.2 4.1-1.2c1.8 0 3 0.4 3.6 1q0.9 1 1 3 0.1 2.3-0.2 5.3l-0.4 5c0 0.4 0.1 0.7 0.4 1 0.2 0.3 0.5 0.4 0.9 0.4h10c0.6 0 1.2-0.5 1.3-1.2l0.4-5.1c0.4-3.9 0.1-7.4-0.8-10.2-0.9-3.1-2.6-5.4-5.2-7.1z"/>
				<path id="&lt;Path&gt;" class="s3" d="m284.2 106.1l0.7-7.7c0-0.3-0.1-0.7-0.3-0.9-0.3-0.3-0.6-0.5-1-0.5l-30.9-0.1c-0.7 0-1.2 0.5-1.3 1.2l-0.7 7.7c0 0.4 0.1 0.7 0.4 1 0.2 0.3 0.6 0.4 0.9 0.4l9.1 0.1-4.7 54.3c0 0.4 0.1 0.8 0.3 1 0.3 0.3 0.6 0.5 1 0.5h10.4c0.6 0 1.2-0.5 1.3-1.2l4.6-54.6h8.9c0.7 0 1.3-0.5 1.3-1.2z"/>
				<path id="&lt;Path&gt;" class="s3" d="m299.4 97.1l-10.2-0.1c-0.7 0-1.3 0.6-1.3 1.2l-5.5 63.5c0 0.4 0.1 0.7 0.4 1 0.2 0.3 0.6 0.4 0.9 0.4l10.2 0.1c0.7 0 1.3-0.5 1.3-1.2l5.5-63.5c0-0.4-0.1-0.7-0.4-1-0.2-0.3-0.6-0.4-0.9-0.4z"/>
				<path id="&lt;Path&gt;" class="s3" d="m343.1 97.7c-0.2-0.3-0.6-0.5-1-0.5h-9.4c-0.6 0-1.1 0.4-1.3 0.9l-10.8 39.3-4.4-39.1c-0.1-0.7-0.7-1.2-1.3-1.2h-9.4c-0.3 0-0.7 0.2-0.9 0.4-0.3 0.3-0.4 0.7-0.4 1.1l8 63.5c0.1 0.6 0.7 1.1 1.3 1.1l9.7 0.1c0.6 0 1.1-0.4 1.3-1l18.8-63.4c0.1-0.4 0.1-0.8-0.2-1.2z"/>
				<path id="&lt;Compound Path&gt;" fill-rule="evenodd" class="s3" d="m380.6 107c0.9 3.2 1.2 7 0.8 11.3l-2 24c-0.4 4.4-1.3 8.2-2.8 11.4-1.5 3.3-3.8 5.9-6.7 7.7-2.9 1.9-6.8 2.8-11.4 2.8-4.7-0.1-8.4-1-11.1-2.8-2.8-1.9-4.6-4.5-5.6-7.9-0.9-3.3-1.1-7.1-0.8-11.5l2.1-24c0.4-4.4 1.3-8.2 2.8-11.3 1.5-3.3 3.8-5.8 6.7-7.5 3-1.7 6.8-2.6 11.4-2.5 4.7 0 8.4 0.9 11.1 2.6q0 0 0 0c2.7 1.8 4.5 4.4 5.5 7.7zm-12.1 8.8q0.3-2.9 0-5-0.3-1.8-1.4-2.8-1.1-1-3.8-1-2.6 0-4 1c-0.9 0.7-1.5 1.7-2 3q-0.7 2.1-0.9 5l-2.4 28.6q-0.3 2.9 0 5.2c0.2 1.3 0.6 2.2 1.4 2.9q1.1 1 3.7 1 2.7 0 4.1-1c0.9-0.8 1.6-1.8 2-3.1q0.6-2.3 0.9-5.2z"/>
				<path id="&lt;Compound Path&gt;" fill-rule="evenodd" class="s3" d="m439.8 107c0.6 2.2 0.8 5 0.6 8.1-0.3 2.7-0.8 5.1-1.7 7.1q-1.4 3.1-3.9 4.9-0.8 0.6-1.8 1.1 1.5 0.7 2.7 1.8 0 0 0 0c1.6 1.5 2.8 3.5 3.4 5.9 0.7 2.2 0.9 5 0.6 8.2-0.3 3-0.9 5.8-1.8 8.1-1 2.5-2.3 4.5-4 6.2-1.6 1.7-3.7 3-6.1 3.9-2.3 0.8-5 1.3-8.1 1.3l-17.7-0.1c-0.3 0-0.7-0.1-0.9-0.4-0.3-0.3-0.4-0.6-0.4-1l5.4-63.5c0.1-0.7 0.7-1.2 1.4-1.2l15.1 0.1c2.9 0 5.5 0.3 7.8 0.9q3.6 0.9 5.9 3 2.5 2.2 3.5 5.6zm-12.2 13.2q0.9-2.1 1.1-5.3c0.3-2.8-0.1-4.3-0.5-5q-0.7-1.4-2.7-1.9-2.3-0.6-6.1-0.6h-1l-1.4 16.2h3.1q3.3 0 5.1-0.8c1.1-0.6 1.9-1.4 2.4-2.6zm-13.2 33.4l3.7 0.1c3.3 0 5.6-0.8 6.7-2.2 1.3-1.6 2.1-4.1 2.4-7.7q0.3-3.6-0.4-6c-0.4-1.3-1.1-2.3-2.2-3q-1.8-1.1-5.1-1.1h-3.4z"/>
				<path id="&lt;Compound Path&gt;" fill-rule="evenodd" class="s3" d="m481.8 107.1c1 3.1 1.3 7 0.9 11.6l-2 23.2c-0.4 4.7-1.3 8.7-2.8 11.9-1.6 3.3-4 5.8-7.1 7.5-3.1 1.6-7.1 2.4-12.1 2.4l-15-0.1c-0.3 0-0.7-0.1-0.9-0.4-0.3-0.3-0.4-0.6-0.4-1l5.5-63.5c0-0.6 0.6-1.2 1.3-1.2l14.4 0.1c5.1 0 9.2 0.8 12.1 2.3q0 0 0 0c3.1 1.6 5.1 4 6.1 7.2zm-12.1 11.4c0.2-2.8 0.2-5.1 0-6.8q-0.3-2.1-1.6-3c-0.7-0.4-2.1-1-5.2-1h-2.8l-4 46.1h2.8q4 0 5.6-1.3 1.6-1.3 2.2-4c0.5-2 0.8-4.5 1.1-7.4z"/>
				<path id="&lt;Path&gt;" class="s3" d="m525.4 98.3c-0.3-0.3-0.7-0.5-1.1-0.5l-9.4-0.1c-0.6 0-1.1 0.4-1.2 1l-10.8 39.2-4.5-39c0-0.7-0.6-1.2-1.3-1.2h-9.3c-0.4 0-0.7 0.1-1 0.4-0.2 0.3-0.3 0.7-0.3 1l8 63.6c0.1 0.6 0.6 1.1 1.3 1.1h9.7c0.6 0 1.1-0.3 1.3-0.9l18.8-63.4c0.1-0.4 0-0.9-0.2-1.2z"/>
			</g>
			<g id="&lt;Group&gt;">
				<path id="&lt;Path&gt;" class="s4" d="m104.4 94.4h-10.4c-0.7 0-1.2 0.5-1.3 1.2l-2 23.1-8.9-23.5c-0.2-0.5-0.7-0.9-1.3-0.9h-9.8c-0.4 0-0.8 0.2-1 0.6-0.3 0.3-0.3 0.8-0.2 1.2l9.8 27.7-16.7 34.7c-0.2 0.4-0.2 0.9 0 1.3 0.3 0.4 0.7 0.6 1.1 0.6h10.2c0.5 0 1-0.3 1.2-0.7l12.6-26.8 1.6 3.2-2 23c0 0.3 0.1 0.7 0.3 1 0.3 0.2 0.6 0.4 1 0.4h10.3c0.7 0 1.3-0.5 1.3-1.2l5.5-63.5c0-0.3-0.1-0.7-0.4-1-0.2-0.2-0.6-0.4-0.9-0.4z"/>
				<path id="&lt;Compound Path&gt;" fill-rule="evenodd" class="s4" d="m147 104.2c0.9 3.2 1.2 7 0.9 11.4l-2.1 23.9c-0.4 4.4-1.3 8.2-2.8 11.5-1.5 3.3-3.7 5.9-6.7 7.7-2.9 1.8-6.8 2.7-11.4 2.7-4.7 0-8.4-1-11.1-2.8-2.7-1.8-4.6-4.5-5.6-7.9-0.8-3.3-1.1-7.1-0.7-11.5l2-24c0.4-4.3 1.3-8.1 2.8-11.3 1.5-3.3 3.8-5.8 6.7-7.5 3-1.7 6.8-2.5 11.4-2.5 4.7 0 8.4 0.9 11.1 2.7q0 0 0 0c2.7 1.7 4.5 4.3 5.5 7.6zm-12.1 8.8q0.3-2.9 0-5-0.3-1.8-1.4-2.8-1.1-0.9-3.8-1-2.6 0-3.9 1.1c-1 0.7-1.6 1.6-2 2.9q-0.7 2.1-1 5l-2.4 28.6q-0.3 2.9 0 5.2c0.2 1.3 0.6 2.2 1.4 2.9q1.1 1 3.7 1 2.7 0 4.1-1c0.9-0.7 1.6-1.7 2-3.1q0.6-2.2 0.9-5.2z"/>
				<path id="&lt;Path&gt;" class="s4" d="m177.4 150.9h-14.4l4.7-54.9c0-0.3-0.1-0.7-0.3-1-0.3-0.2-0.6-0.4-1-0.4h-10.3c-0.7 0-1.3 0.5-1.3 1.2l-5.5 63.5c0 0.3 0.1 0.7 0.4 1 0.2 0.2 0.6 0.4 0.9 0.4l26.1 0.1c0.7 0 1.3-0.6 1.4-1.2l0.6-7.2c0-0.4-0.1-0.8-0.4-1-0.2-0.3-0.6-0.5-0.9-0.5z"/>
				<path id="&lt;Path&gt;" class="s4" d="m212.3 104.8c0.7 0 1.3-0.5 1.3-1.2l0.7-7.4c0-0.4-0.1-0.7-0.4-1-0.2-0.3-0.6-0.4-0.9-0.4l-25.7-0.1c-0.7 0-1.3 0.5-1.3 1.2l-5.5 63.5c0 0.3 0.1 0.7 0.4 0.9 0.2 0.3 0.6 0.5 0.9 0.5l25.9 0.1c0.7 0 1.3-0.6 1.3-1.2l0.6-7.3c0.1-0.3-0.1-0.7-0.3-0.9-0.3-0.3-0.6-0.5-1-0.5h-14.1l1.7-19.5h11.1c0.7 0 1.2-0.5 1.3-1.2l0.6-7.2c0.1-0.3-0.1-0.7-0.3-1-0.3-0.2-0.6-0.4-1-0.4h-10.9l1.5-16.9z"/>
				<path id="&lt;Path&gt;" class="s4" d="m246.3 96.7c-2.5-1.7-6-2.5-10.5-2.5-4.7 0-8.6 0.9-11.6 2.8-2.9 1.9-5.1 4.6-6.5 8-1.4 3.2-2.2 7.1-2.6 11.6l-1.9 22.6c-0.4 4.1-0.2 7.9 0.6 11.1 0.8 3.5 2.6 6.3 5.2 8.3 2.7 2.1 6.5 3.1 11.3 3.1 4.6 0 8.4-0.9 11.1-2.6 2.7-1.8 4.8-4.3 6.1-7.5 1.3-3 2.1-6.5 2.5-10.5l0.4-4.8c0-0.4-0.1-0.8-0.4-1-0.2-0.3-0.6-0.4-0.9-0.4l-10-0.1c-0.7 0-1.2 0.5-1.3 1.2l-0.4 5.3q-0.3 3.1-0.8 5.5-0.5 2.1-1.8 3.4-1.1 1.1-3.7 1.1-2.4-0.1-3.5-0.9-1.1-0.9-1.5-2.9-0.4-2.3-0.1-6.1l2.3-26.5q0.3-3.3 0.9-5.8c0.4-1.4 1.1-2.6 2-3.4q1.3-1.1 4.1-1.1c1.7 0 3 0.3 3.5 0.9q1 1.1 1.1 3 0.1 2.4-0.2 5.3l-0.4 5.1c0 0.3 0.1 0.7 0.3 0.9 0.3 0.3 0.6 0.5 1 0.5h9.9c0.7 0 1.3-0.5 1.3-1.2l0.5-5.2c0.3-3.9 0.1-7.3-0.8-10.2-0.9-3-2.7-5.4-5.2-7z"/>
				<path id="&lt;Path&gt;" class="s4" d="m287.7 104.1l0.7-7.7c0-0.4-0.1-0.7-0.4-1-0.2-0.3-0.6-0.4-0.9-0.4l-30.9-0.1c-0.7 0-1.3 0.5-1.3 1.2l-0.7 7.7c0 0.3 0.1 0.7 0.4 1 0.2 0.2 0.5 0.4 0.9 0.4h9l-4.6 54.4c-0.1 0.4 0.1 0.7 0.3 1 0.3 0.3 0.6 0.4 1 0.4l10.3 0.1c0.7 0 1.3-0.6 1.3-1.2l4.7-54.6h8.9c0.7 0 1.2-0.5 1.3-1.2z"/>
				<path id="&lt;Path&gt;" class="s4" d="m302.8 95h-10.2c-0.7 0-1.2 0.5-1.3 1.2l-5.4 63.5c0 0.3 0.1 0.7 0.3 1 0.3 0.2 0.6 0.4 1 0.4h10.2c0.7 0 1.2-0.5 1.3-1.2l5.4-63.4c0.1-0.4-0.1-0.8-0.3-1-0.3-0.3-0.6-0.5-1-0.5z"/>
				<path id="&lt;Path&gt;" class="s4" d="m346.6 95.7c-0.3-0.3-0.6-0.5-1.1-0.5l-9.4-0.1c-0.6 0-1.1 0.4-1.2 1l-10.8 39.2-4.5-39.1c0-0.6-0.6-1.1-1.3-1.1h-9.3c-0.4 0-0.7 0.1-1 0.4-0.2 0.3-0.3 0.7-0.3 1l8 63.6c0.1 0.6 0.6 1.1 1.3 1.1h9.7c0.6 0 1.1-0.4 1.3-0.9l18.8-63.5c0.1-0.3 0-0.8-0.2-1.1z"/>
				<path id="&lt;Compound Path&gt;" fill-rule="evenodd" class="s4" d="m384.1 105c0.9 3.1 1.2 6.9 0.8 11.3l-2 24c-0.4 4.4-1.3 8.2-2.8 11.4-1.5 3.3-3.8 5.9-6.7 7.7-3 1.8-6.8 2.7-11.5 2.7-4.6 0-8.3-0.9-11-2.7-2.8-1.9-4.7-4.6-5.6-8-0.9-3.2-1.2-7.1-0.8-11.4l2.1-24c0.3-4.4 1.3-8.2 2.7-11.4 1.6-3.2 3.8-5.7 6.8-7.5 2.9-1.7 6.8-2.5 11.4-2.5 4.6 0 8.4 0.9 11 2.7q0 0 0 0c2.7 1.8 4.6 4.4 5.6 7.7zm-12.1 8.8q0.2-2.9 0-5.1-0.3-1.8-1.4-2.7-1.2-1-3.8-1-2.6 0-4 1c-0.9 0.7-1.6 1.7-2 2.9q-0.7 2.1-0.9 5.1l-2.5 28.6q-0.2 2.9 0.1 5.1c0.1 1.3 0.6 2.3 1.3 3q1.2 1 3.8 1 2.7 0 4.1-1.1c0.9-0.7 1.5-1.7 1.9-3q0.7-2.3 1-5.2z"/>
				<path id="&lt;Compound Path&gt;" fill-rule="evenodd" class="s4" d="m443.3 105c0.6 2.2 0.8 4.9 0.5 8-0.2 2.7-0.8 5.1-1.7 7.1q-1.4 3.2-3.8 5-0.8 0.6-1.8 1 1.5 0.8 2.6 1.8 0 0 0 0c1.7 1.6 2.9 3.6 3.5 5.9 0.7 2.3 0.8 5.1 0.6 8.2-0.3 3.1-0.9 5.8-1.8 8.2-1 2.4-2.3 4.5-4 6.2-1.7 1.6-3.7 2.9-6.1 3.8-2.3 0.9-5.1 1.3-8.1 1.3h-17.7c-0.4 0-0.7-0.2-1-0.5-0.2-0.2-0.3-0.6-0.3-0.9l5.4-63.5c0.1-0.7 0.6-1.2 1.3-1.2h15.2c2.9 0 5.5 0.3 7.8 1q3.5 0.9 5.9 3 2.4 2.1 3.5 5.6zm-12.2 13.1q0.8-2 1.1-5.2c0.3-2.9-0.1-4.3-0.5-5q-0.8-1.4-2.7-1.9-2.3-0.6-6.2-0.6h-1l-1.3 16.2h3.1q3.3 0 5.1-0.9c1-0.5 1.8-1.4 2.4-2.6zm-13.2 33.5h3.7c3.3 0 5.5-0.7 6.7-2.1 1.3-1.6 2.1-4.2 2.4-7.7q0.3-3.7-0.4-6c-0.4-1.4-1.1-2.4-2.3-3.1q-1.7-1-5.1-1l-3.3-0.1z"/>
				<path id="&lt;Compound Path&gt;" fill-rule="evenodd" class="s4" d="m485.3 105.1c1 3.1 1.3 6.9 0.9 11.5l-2 23.2c-0.4 4.8-1.4 8.8-2.8 11.9-1.6 3.3-4 5.9-7.1 7.5-3.1 1.6-7.2 2.5-12.1 2.4h-15c-0.4 0-0.7-0.2-1-0.4-0.2-0.3-0.3-0.7-0.3-1l5.4-63.5c0.1-0.7 0.6-1.2 1.3-1.2l14.5 0.1c5.1 0 9.2 0.7 12.1 2.2q0 0 0 0c3 1.6 5.1 4.1 6.1 7.3zm-12.1 11.3c0.2-2.8 0.2-5 0-6.7q-0.3-2.1-1.6-3c-0.7-0.5-2.2-1-5.3-1h-2.8l-3.9 46h2.8q3.9 0.1 5.6-1.3 1.6-1.3 2.2-4c0.4-2 0.8-4.5 1-7.4z"/>
				<path id="&lt;Path&gt;" class="s4" d="m528.9 96.3c-0.3-0.4-0.7-0.6-1.1-0.6h-9.4c-0.6 0-1.1 0.4-1.3 1l-10.8 39.2-4.4-39.1c-0.1-0.6-0.6-1.1-1.3-1.1l-9.3-0.1c-0.4 0-0.8 0.2-1 0.5-0.3 0.2-0.4 0.6-0.3 1l8 63.5c0 0.7 0.6 1.2 1.3 1.2h9.7c0.6 0 1.1-0.4 1.2-0.9l18.9-63.5c0.1-0.4 0-0.8-0.2-1.1z"/>
			</g>
			<g id="&lt;Group&gt;">
				<path id="&lt;Path&gt;" class="s5" d="m108.3 92.1h-10.4c-0.6 0-1.2 0.5-1.3 1.2l-1.9 23.1-9-23.5c-0.2-0.5-0.7-0.9-1.2-0.9h-9.8c-0.5 0-0.9 0.2-1.1 0.6-0.3 0.3-0.3 0.8-0.2 1.2l9.8 27.7-16.7 34.7c-0.2 0.4-0.2 0.9 0.1 1.3 0.2 0.4 0.6 0.6 1.1 0.6h10.2c0.5 0 0.9-0.3 1.1-0.7l12.7-26.8 1.5 3.2-2 23c0 0.3 0.1 0.7 0.4 1 0.2 0.2 0.5 0.4 0.9 0.4h10.4c0.6 0 1.2-0.5 1.3-1.2l5.4-63.5c0-0.3-0.1-0.7-0.4-1-0.2-0.2-0.5-0.4-0.9-0.4z"/>
				<path id="&lt;Compound Path&gt;" fill-rule="evenodd" class="s5" d="m150.9 101.9c1 3.2 1.2 7 0.9 11.4l-2.1 23.9c-0.3 4.4-1.3 8.2-2.7 11.4-1.6 3.4-3.8 6-6.8 7.8-2.9 1.8-6.7 2.7-11.4 2.7-4.7 0-8.4-1-11.1-2.8-2.7-1.8-4.6-4.5-5.5-7.9-0.9-3.3-1.2-7.1-0.8-11.5l2-24c0.4-4.3 1.3-8.1 2.8-11.3 1.5-3.3 3.8-5.8 6.8-7.5 2.9-1.7 6.7-2.5 11.3-2.5 4.7 0 8.4 0.9 11.1 2.7q0 0 0 0c2.7 1.7 4.5 4.3 5.5 7.6zm-12 8.8q0.2-2.9-0.1-5-0.2-1.8-1.4-2.8-1.1-0.9-3.7-1-2.7 0-4 1.1c-1 0.7-1.6 1.6-2 2.9q-0.7 2.1-1 5l-2.4 28.6q-0.3 2.9 0 5.2c0.2 1.3 0.6 2.2 1.4 2.9q1.1 1 3.8 1 2.6 0 4-1c0.9-0.7 1.6-1.7 2-3.1q0.7-2.2 0.9-5.2z"/>
				<path id="&lt;Path&gt;" class="s5" d="m181.3 148.6h-14.3l4.6-54.9c0.1-0.3-0.1-0.7-0.3-1-0.2-0.2-0.6-0.4-1-0.4h-10.3c-0.7 0-1.3 0.5-1.3 1.2l-5.4 63.5c-0.1 0.3 0.1 0.7 0.3 1 0.2 0.2 0.6 0.4 1 0.4l26.1 0.1c0.6 0 1.2-0.6 1.3-1.2l0.6-7.2c0-0.4-0.1-0.8-0.3-1-0.3-0.3-0.6-0.5-1-0.5z"/>
				<path id="&lt;Path&gt;" class="s5" d="m216.3 102.5c0.6 0 1.2-0.5 1.3-1.2l0.6-7.4c0-0.4-0.1-0.7-0.3-1-0.3-0.3-0.6-0.4-1-0.4l-25.7-0.1c-0.7 0-1.3 0.5-1.3 1.2l-5.4 63.5c-0.1 0.3 0.1 0.7 0.3 0.9 0.2 0.3 0.6 0.5 1 0.5l25.8 0.1c0.7 0 1.3-0.6 1.3-1.2l0.7-7.3c0-0.3-0.1-0.7-0.4-0.9-0.2-0.3-0.6-0.5-0.9-0.5h-14.1l1.6-19.5h11.1c0.7 0 1.3-0.5 1.3-1.2l0.6-7.2c0.1-0.3-0.1-0.7-0.3-1-0.2-0.2-0.6-0.4-1-0.4h-10.8l1.4-16.9z"/>
				<path id="&lt;Path&gt;" class="s5" d="m250.2 94.4c-2.5-1.7-6-2.5-10.4-2.5-4.8 0-8.7 0.9-11.7 2.8-2.9 1.9-5.1 4.6-6.5 8-1.3 3.2-2.2 7.1-2.6 11.6l-1.9 22.6c-0.4 4.1-0.2 7.9 0.6 11.1 0.8 3.5 2.6 6.3 5.3 8.3 2.6 2.1 6.4 3.1 11.2 3.1 4.6 0 8.4-0.9 11.1-2.6 2.7-1.8 4.8-4.3 6.1-7.5 1.3-3 2.1-6.5 2.5-10.5l0.4-4.8c0-0.4-0.1-0.8-0.3-1-0.3-0.3-0.6-0.4-1-0.4l-10-0.1c-0.6 0-1.2 0.5-1.3 1.2l-0.4 5.3q-0.3 3.1-0.8 5.5-0.5 2.1-1.7 3.4-1.2 1.1-3.8 1.1-2.3-0.1-3.5-0.9-1.1-0.9-1.5-2.9-0.4-2.3-0.1-6.1l2.3-26.5q0.3-3.3 0.9-5.8c0.4-1.4 1.1-2.6 2-3.4q1.3-1.1 4.1-1.1c1.8 0 3 0.3 3.6 0.9q0.9 1.1 1 3 0.1 2.4-0.2 5.3l-0.4 5.1c0 0.3 0.1 0.7 0.3 0.9 0.3 0.3 0.6 0.5 1 0.5h10c0.6 0 1.2-0.5 1.3-1.2l0.4-5.2c0.3-3.9 0.1-7.3-0.8-10.2-0.9-3-2.6-5.4-5.2-7z"/>
				<path id="&lt;Path&gt;" class="s5" d="m291.6 101.8l0.7-7.7c0-0.4-0.1-0.7-0.4-1-0.2-0.3-0.6-0.4-0.9-0.4l-30.9-0.1c-0.7 0-1.3 0.5-1.3 1.2l-0.7 7.7c0 0.3 0.1 0.7 0.4 1 0.2 0.2 0.6 0.4 0.9 0.4h9l-4.6 54.4c0 0.4 0.1 0.7 0.3 1 0.3 0.3 0.6 0.4 1 0.4l10.3 0.1c0.7 0 1.3-0.6 1.3-1.2l4.7-54.6h8.9c0.7 0 1.3-0.5 1.3-1.2z"/>
				<path id="&lt;Path&gt;" class="s5" d="m306.7 92.7h-10.2c-0.6 0-1.2 0.5-1.3 1.2l-5.4 63.5c0 0.3 0.1 0.7 0.4 1 0.2 0.2 0.6 0.4 0.9 0.4h10.2c0.7 0 1.3-0.5 1.3-1.2l5.4-63.4c0.1-0.4-0.1-0.8-0.3-1-0.2-0.3-0.6-0.5-1-0.5z"/>
				<path id="&lt;Path&gt;" class="s5" d="m350.5 93.4c-0.2-0.3-0.6-0.5-1-0.5l-9.4-0.1c-0.6 0-1.2 0.4-1.3 1l-10.8 39.2-4.4-39.1c-0.1-0.6-0.7-1.1-1.3-1.1h-9.4c-0.3 0-0.7 0.1-1 0.4-0.2 0.3-0.3 0.7-0.3 1l8 63.6c0.1 0.6 0.7 1.1 1.3 1.1h9.7c0.6 0 1.1-0.4 1.3-0.9l18.8-63.5c0.1-0.3 0.1-0.8-0.2-1.1z"/>
				<path id="&lt;Compound Path&gt;" fill-rule="evenodd" class="s5" d="m388 102.7c0.9 3.1 1.2 6.9 0.8 11.3l-2 24c-0.4 4.4-1.3 8.2-2.8 11.4-1.5 3.3-3.8 5.9-6.7 7.7-2.9 1.8-6.8 2.7-11.5 2.7-4.6 0-8.3-0.9-11-2.7-2.8-1.9-4.6-4.6-5.6-8-0.9-3.2-1.1-7.1-0.8-11.4l2.1-24c0.4-4.4 1.3-8.2 2.8-11.4 1.5-3.2 3.7-5.7 6.7-7.5 3-1.7 6.8-2.5 11.4-2.5 4.7 0 8.4 0.9 11 2.7q0 0 0 0c2.7 1.8 4.6 4.4 5.6 7.7zm-12.1 8.8q0.3-2.9 0-5.1-0.3-1.8-1.4-2.7-1.1-1-3.8-1-2.6 0-4 1c-0.9 0.7-1.6 1.7-2 2.9q-0.7 2.1-0.9 5.1l-2.5 28.6q-0.2 2.9 0.1 5.1c0.1 1.3 0.6 2.3 1.4 3q1.1 1 3.7 1 2.7 0 4.1-1.1c0.9-0.7 1.6-1.7 2-3q0.6-2.3 0.9-5.2z"/>
				<path id="&lt;Compound Path&gt;" fill-rule="evenodd" class="s5" d="m447.2 102.7c0.6 2.2 0.8 4.9 0.6 8-0.3 2.7-0.8 5.1-1.7 7.1q-1.4 3.2-3.9 5-0.8 0.6-1.8 1 1.5 0.8 2.6 1.8 0 0 0 0c1.7 1.6 2.9 3.6 3.5 5.9 0.7 2.3 0.9 5.1 0.6 8.2-0.3 3.1-0.9 5.8-1.8 8.2-1 2.4-2.3 4.5-4 6.2-1.6 1.6-3.7 2.9-6.1 3.8-2.3 0.9-5 1.3-8.1 1.3h-17.7c-0.4 0-0.7-0.2-0.9-0.5-0.3-0.2-0.4-0.6-0.4-0.9l5.4-63.5c0.1-0.7 0.7-1.2 1.3-1.2h15.2c2.9 0 5.5 0.3 7.8 1q3.5 0.9 5.9 3 2.5 2.1 3.5 5.6zm-12.2 13.1q0.9-2 1.1-5.2c0.3-2.9-0.1-4.3-0.5-5q-0.7-1.4-2.7-1.9-2.3-0.6-6.2-0.6h-0.9l-1.4 16.2h3.1q3.3 0 5.1-0.9c1.1-0.5 1.8-1.4 2.4-2.6zm-13.2 33.5h3.7c3.3 0 5.5-0.7 6.7-2.1 1.3-1.6 2.1-4.2 2.4-7.7q0.3-3.7-0.4-6c-0.4-1.4-1.1-2.4-2.2-3.1q-1.8-1-5.1-1l-3.4-0.1z"/>
				<path id="&lt;Compound Path&gt;" fill-rule="evenodd" class="s5" d="m489.2 102.8c1 3 1.3 6.9 0.9 11.5l-2 23.2c-0.4 4.8-1.3 8.8-2.8 11.9-1.6 3.3-4 5.9-7.1 7.5-3.1 1.6-7.2 2.5-12.1 2.4h-15c-0.3 0-0.7-0.2-0.9-0.4-0.3-0.3-0.4-0.7-0.4-1l5.4-63.5c0.1-0.7 0.7-1.2 1.3-1.2h14.5c5.1 0.1 9.2 0.8 12.1 2.3q0 0 0 0c3 1.6 5.1 4.1 6.1 7.3zm-12.1 11.3c0.2-2.8 0.2-5.1 0-6.7q-0.3-2.1-1.6-3c-0.7-0.5-2.2-1-5.3-1h-2.8l-3.9 46h2.8q4 0.1 5.6-1.3 1.6-1.3 2.2-4c0.4-2 0.8-4.5 1.1-7.4z"/>
				<path id="&lt;Path&gt;" class="s5" d="m532.8 94c-0.3-0.4-0.7-0.6-1.1-0.6h-9.4c-0.6 0-1.1 0.4-1.2 1l-10.9 39.2-4.4-39.1c-0.1-0.6-0.6-1.1-1.3-1.1l-9.3-0.1c-0.4 0-0.7 0.2-1 0.5-0.2 0.2-0.4 0.6-0.3 1l8 63.5c0.1 0.7 0.6 1.2 1.3 1.2h9.7c0.6 0 1.1-0.4 1.3-0.9l18.8-63.5c0.1-0.4 0-0.8-0.2-1.1z"/>
			</g>
			<g id="&lt;Group&gt;">
				<path id="&lt;Path&gt;" class="s6" d="m112.7 89.5h-10.4c-0.7 0-1.2 0.5-1.3 1.2l-2 23.1-9-23.5c-0.2-0.5-0.6-0.9-1.2-0.9h-9.8c-0.4 0-0.8 0.2-1 0.5-0.3 0.4-0.4 0.8-0.2 1.2l9.8 27.8-16.7 34.7c-0.2 0.4-0.2 0.9 0 1.3 0.3 0.4 0.7 0.6 1.1 0.6h10.2c0.5 0 1-0.3 1.2-0.7l14.7-30.5-0.6 6.9-1.9 22.9c-0.1 0.4 0.1 0.8 0.3 1 0.3 0.3 0.6 0.5 1 0.5h10.3c0.7 0 1.3-0.5 1.3-1.2l5.5-63.5c0-0.3-0.1-0.7-0.4-1-0.2-0.2-0.6-0.4-0.9-0.4z"/>
				<path id="&lt;Compound Path&gt;" fill-rule="evenodd" class="s6" d="m155.3 99.3c0.9 3.2 1.2 7 0.8 11.4l-2 23.9c-0.4 4.4-1.3 8.2-2.8 11.4-1.5 3.3-3.8 5.9-6.7 7.8-2.9 1.8-6.8 2.7-11.5 2.7-4.6-0.1-8.3-1-11-2.8-2.8-1.9-4.6-4.5-5.6-7.9-0.9-3.3-1.1-7.1-0.8-11.5l2.1-24c0.4-4.3 1.3-8.2 2.8-11.3 1.5-3.3 3.8-5.8 6.7-7.5 3-1.7 6.8-2.6 11.4-2.5 4.7 0 8.4 0.9 11.1 2.6q0 0 0 0c2.6 1.8 4.5 4.4 5.5 7.7zm-12.1 8.8q0.3-2.9 0-5-0.3-1.8-1.4-2.8-1.1-1-3.8-1-2.6 0-4 1c-0.9 0.7-1.6 1.7-2 3q-0.7 2.1-0.9 5l-2.4 28.6q-0.3 2.9 0 5.2c0.2 1.3 0.6 2.2 1.4 2.9q1.1 1 3.7 1 2.7 0 4.1-1c0.9-0.8 1.6-1.8 2-3.1q0.6-2.3 0.9-5.2z"/>
				<path id="&lt;Path&gt;" class="s6" d="m185.7 146h-14.4l4.7-54.9c0-0.3-0.1-0.7-0.3-1-0.3-0.2-0.6-0.4-1-0.4h-10.3c-0.7 0-1.3 0.5-1.4 1.2l-5.4 63.4c0 0.4 0.1 0.8 0.4 1 0.2 0.3 0.6 0.5 0.9 0.5h26.1c0.7 0 1.3-0.5 1.3-1.2l0.7-7.2c0-0.3-0.1-0.7-0.4-1-0.2-0.2-0.6-0.4-0.9-0.4z"/>
				<path id="&lt;Path&gt;" class="s6" d="m220.6 99.9c0.7 0 1.3-0.5 1.3-1.2l0.7-7.4c0-0.4-0.1-0.8-0.4-1-0.2-0.3-0.6-0.5-0.9-0.5h-25.7c-0.7 0-1.3 0.5-1.4 1.2l-5.4 63.4c0 0.4 0.1 0.8 0.4 1 0.2 0.3 0.6 0.5 0.9 0.5h25.9c0.7 0 1.2-0.5 1.3-1.2l0.6-7.2c0-0.3-0.1-0.7-0.3-1-0.3-0.2-0.6-0.4-1-0.4h-14.1l1.7-19.5h11.1c0.7 0 1.2-0.5 1.3-1.2l0.6-7.2c0-0.4-0.1-0.7-0.3-1-0.3-0.3-0.6-0.4-1-0.4h-10.9l1.5-16.9z"/>
				<path id="&lt;Path&gt;" class="s6" d="m254.6 91.8c-2.5-1.7-6.1-2.5-10.5-2.5-4.7 0-8.7 0.9-11.6 2.8-3 1.9-5.2 4.5-6.5 7.9-1.4 3.3-2.2 7.2-2.6 11.7l-2 22.5c-0.3 4.2-0.1 7.9 0.7 11.2 0.8 3.5 2.6 6.3 5.2 8.3 2.7 2 6.5 3.1 11.3 3.1 4.6 0 8.3-0.9 11.1-2.7 2.7-1.7 4.8-4.2 6.1-7.4 1.3-3 2.1-6.6 2.4-10.5l0.5-4.8c0-0.4-0.1-0.8-0.4-1-0.2-0.3-0.6-0.5-0.9-0.5h-10c-0.7 0-1.2 0.5-1.3 1.2l-0.4 5.3q-0.3 3.1-0.9 5.5-0.4 2.1-1.7 3.3-1.1 1.1-3.8 1.1-2.3 0-3.4-0.8-1.1-0.9-1.5-2.9-0.4-2.3-0.1-6.1l2.3-26.5q0.3-3.3 0.9-5.8c0.4-1.5 1-2.6 2-3.4q1.3-1.1 4-1.1c1.8 0 3.1 0.3 3.6 0.9q1 1 1 3 0.1 2.4-0.1 5.3l-0.4 5c-0.1 0.4 0.1 0.8 0.3 1 0.3 0.3 0.6 0.5 1 0.5h9.9c0.7 0 1.3-0.5 1.3-1.2l0.5-5.2c0.3-3.9 0-7.3-0.8-10.2-0.9-3-2.7-5.4-5.2-7z"/>
				<path id="&lt;Path&gt;" class="s6" d="m296 99.2l0.6-7.7c0.1-0.4 0-0.7-0.3-1-0.2-0.3-0.6-0.4-1-0.4l-30.8-0.1c-0.7 0-1.3 0.5-1.3 1.2l-0.7 7.7c0 0.3 0.1 0.7 0.3 0.9 0.3 0.3 0.6 0.5 1 0.5h9l-4.6 54.4c-0.1 0.4 0.1 0.7 0.3 1 0.2 0.2 0.6 0.4 1 0.4h10.3c0.7 0 1.3-0.5 1.3-1.2l4.7-54.6 8.9 0.1c0.7 0 1.2-0.6 1.3-1.2z"/>
				<path id="&lt;Path&gt;" class="s6" d="m311.1 90.1h-10.2c-0.7 0-1.2 0.5-1.3 1.2l-5.4 63.5c0 0.3 0.1 0.7 0.3 1 0.3 0.2 0.6 0.4 1 0.4h10.2c0.7 0 1.2-0.5 1.3-1.2l5.4-63.5c0-0.3-0.1-0.7-0.3-1-0.3-0.2-0.6-0.4-1-0.4z"/>
				<path id="&lt;Path&gt;" class="s6" d="m354.9 90.8c-0.3-0.3-0.7-0.5-1.1-0.5l-9.4-0.1c-0.6 0-1.1 0.4-1.2 1l-10.9 39.2-4.4-39.1c-0.1-0.6-0.6-1.1-1.3-1.1l-9.3-0.1c-0.4 0-0.7 0.2-1 0.5-0.2 0.3-0.4 0.6-0.3 1l8 63.5c0.1 0.7 0.6 1.2 1.3 1.2h9.7c0.6 0 1.1-0.4 1.3-0.9l18.8-63.5c0.1-0.4 0-0.8-0.2-1.1z"/>
				<path id="&lt;Compound Path&gt;" fill-rule="evenodd" class="s6" d="m392.4 100c0.9 3.2 1.2 7 0.8 11.4l-2 24c-0.4 4.3-1.4 8.2-2.8 11.4-1.5 3.3-3.8 5.9-6.7 7.7-3 1.8-6.8 2.7-11.5 2.7-4.6 0-8.4-0.9-11.1-2.8-2.7-1.8-4.6-4.5-5.5-7.9-0.9-3.2-1.2-7.1-0.8-11.5l2-23.9c0.4-4.4 1.4-8.2 2.8-11.4 1.5-3.2 3.8-5.8 6.8-7.5 2.9-1.7 6.7-2.5 11.4-2.5 4.6 0 8.4 0.9 11 2.7q0 0 0 0c2.7 1.8 4.6 4.4 5.6 7.6zm-12.1 8.9q0.2-2.9-0.1-5.1-0.2-1.8-1.3-2.7-1.2-1-3.8-1-2.6 0-4 1c-0.9 0.7-1.6 1.6-2 2.9q-0.7 2.1-0.9 5l-2.5 28.6q-0.2 3 0 5.2c0.2 1.3 0.7 2.3 1.4 2.9q1.1 1 3.8 1.1 2.7 0 4-1.1c1-0.7 1.6-1.7 2-3q0.7-2.3 0.9-5.2z"/>
				<path id="&lt;Compound Path&gt;" fill-rule="evenodd" class="s6" d="m451.6 100.1c0.6 2.2 0.8 4.9 0.5 8-0.2 2.7-0.8 5.1-1.7 7.1q-1.4 3.1-3.8 4.9-0.9 0.7-1.8 1.1 1.5 0.8 2.6 1.8 0 0 0 0c1.7 1.6 2.8 3.5 3.5 5.9 0.6 2.3 0.8 5.1 0.6 8.2-0.3 3.1-0.9 5.8-1.9 8.2-0.9 2.4-2.2 4.5-3.9 6.1-1.7 1.7-3.7 3-6.1 3.9-2.4 0.9-5.1 1.3-8.1 1.3h-17.7c-0.4 0-0.7-0.2-1-0.5-0.2-0.2-0.3-0.6-0.3-1l5.4-63.4c0.1-0.7 0.6-1.2 1.3-1.2h15.1c3 0 5.6 0.3 7.9 0.9q3.5 1 5.9 3.1 2.4 2.1 3.5 5.6zm-12.3 13.1q0.9-2 1.2-5.2c0.2-2.9-0.2-4.3-0.5-5q-0.8-1.4-2.7-1.9-2.4-0.6-6.2-0.6h-1l-1.4 16.2h3.2q3.3 0 5-0.9c1.1-0.5 1.9-1.4 2.4-2.6zm-13.1 33.5h3.7c3.2 0 5.5-0.7 6.7-2.2 1.3-1.5 2.1-4.1 2.4-7.6q0.3-3.7-0.4-6c-0.4-1.4-1.2-2.4-2.3-3.1q-1.8-1-5.1-1.1h-3.3z"/>
				<path id="&lt;Compound Path&gt;" fill-rule="evenodd" class="s6" d="m493.6 100.2c1 3 1.3 6.9 0.9 11.5l-2 23.2c-0.4 4.7-1.4 8.7-2.9 11.9-1.5 3.3-3.9 5.8-7 7.5-3.1 1.6-7.2 2.4-12.1 2.4h-15c-0.4 0-0.7-0.2-1-0.4-0.2-0.3-0.3-0.7-0.3-1l5.4-63.5c0.1-0.7 0.6-1.2 1.3-1.2h14.4c5.2 0.1 9.3 0.8 12.2 2.3q0 0 0 0c3 1.6 5.1 4 6.1 7.3zm-12.2 11.3c0.3-2.8 0.3-5.1 0.1-6.7q-0.3-2.1-1.6-3c-0.7-0.5-2.2-1-5.3-1h-2.8l-3.9 46h2.8q3.9 0 5.5-1.3 1.7-1.3 2.3-4c0.4-2 0.8-4.5 1-7.4z"/>
				<path id="&lt;Path&gt;" class="s6" d="m537.1 91.3c-0.2-0.3-0.6-0.5-1-0.5h-9.4c-0.6 0-1.1 0.4-1.3 1l-10.8 39.2-4.4-39.1c-0.1-0.7-0.6-1.2-1.3-1.2h-9.3c-0.4 0-0.8 0.2-1 0.5-0.3 0.2-0.4 0.6-0.3 1l7.9 63.5c0.1 0.7 0.7 1.1 1.3 1.1l9.8 0.1c0.5 0 1-0.4 1.2-1l18.8-63.4c0.2-0.4 0.1-0.8-0.2-1.2z"/>
			</g>
		</g>
	</g>
</svg>